<svg width="181.53500366210938px" height="132.3199981689453px" xmlns="http://www.w3.org/2000/svg" viewBox="159.2324981689453 8.840000915527355 181.53500366210938 132.3199981689453" style="background: rgb(67, 68, 70);" preserveAspectRatio="xMidYMid"><defs><linearGradient id="editing-glowing-gradient" x1="0.14644660940672632" x2="0.8535533905932737" y1="0.8535533905932738" y2="0.14644660940672616"><stop offset="0" stop-color="#32e4ff"></stop><stop offset="1" stop-color="#c2e1f2"></stop></linearGradient><filter id="editing-glowing" x="-100%" y="-100%" width="300%" height="300%"><feGaussianBlur in="SourceGraphic" result="blur" stdDeviation="1.5"></feGaussianBlur><feMerge><feMergeNode in="blur"></feMergeNode><feMergeNode in="SourceGraphic"></feMergeNode></feMerge></filter></defs><g filter="url(#editing-glowing)"><g transform="translate(190.35502338409424, 90.77499961853027)"><path d="M9.54 0L4.54 0L4.54-6.34L9.54-6.34L9.54 0ZM30.02 0.32L30.02 0.32Q26.43 0.32 23.62-1.47L23.62-1.47L23.62-1.47Q20.80-3.26 19.17-6.82L19.17-6.82L19.17-6.82Q17.54-10.37 17.54-15.49L17.54-15.49L17.54-15.49Q17.54-31.23 29.63-31.23L29.63-31.23L29.63-31.23Q33.98-31.23 37.89-29.38L37.89-29.38L37.89-21.31L34.69-20.99L34.69-27.26L34.69-27.26Q32.77-28.03 29.57-28.03L29.57-28.03L29.57-28.03Q25.15-28.03 23.33-24.77L23.33-24.77L23.33-24.77Q21.50-21.50 21.50-15.42L21.50-15.42L21.50-15.42Q21.50-9.47 23.90-6.21L23.90-6.21L23.90-6.21Q26.30-2.94 30.40-2.94L30.40-2.94L30.40-2.94Q34.11-2.94 37.57-5.31L37.57-5.31L39.10-2.50L39.10-2.50Q36.99-0.96 34.78-0.32L34.78-0.32L34.78-0.32Q32.58 0.32 30.02 0.32L30.02 0.32ZM56.51 0.32L56.51 0.32Q50.43 0.32 47.49-3.81L47.49-3.81L47.49-3.81Q44.54-7.94 44.54-15.49L44.54-15.49L44.54-15.49Q44.54-23.36 47.42-27.30L47.42-27.30L47.42-27.30Q50.30-31.23 56.51-31.23L56.51-31.23L56.51-31.23Q62.72-31.23 65.63-27.30L65.63-27.30L65.63-27.30Q68.54-23.36 68.54-15.49L68.54-15.49L68.54-15.49Q68.54-7.94 65.60-3.81L65.60-3.81L65.60-3.81Q62.66 0.32 56.51 0.32L56.51 0.32ZM56.51-3.01L56.51-3.01Q60.93-3.01 62.72-6.21L62.72-6.21L62.72-6.21Q64.51-9.41 64.51-15.49L64.51-15.49L64.51-15.49Q64.51-21.44 62.69-24.70L62.69-24.70L62.69-24.70Q60.86-27.97 56.51-27.97L56.51-27.97L56.51-27.97Q52.16-27.97 50.34-24.70L50.34-24.70L50.34-24.70Q48.51-21.44 48.51-15.49L48.51-15.49L48.51-15.49Q48.51-9.41 50.30-6.21L50.30-6.21L50.30-6.21Q52.10-3.01 56.51-3.01L56.51-3.01ZM76.22 0L76.22-30.78L79.94-30.78L80.06-28.80L80.06-28.80Q84.42-31.23 89.34-31.23L89.34-31.23L89.34-31.23Q94.21-31.23 95.94-28.67L95.94-28.67L95.94-28.67Q100.74-31.23 105.60-31.23L105.60-31.23L105.60-31.23Q110.02-31.23 112.38-28.67L112.38-28.67L112.38-28.67Q114.75-26.11 114.75-20.99L114.75-20.99L114.75 0L110.78 0L110.78-20.99L110.78-20.99Q110.78-27.97 105.73-27.97L105.73-27.97L105.73-27.97Q100.61-27.97 97.41-25.92L97.41-25.92L97.41-25.92Q97.54-25.28 97.66-23.65L97.66-23.65L97.66-23.65Q97.79-22.02 97.79-20.74L97.79-20.74L97.79 0L93.76 0L93.76-20.86L93.76-20.86Q93.76-24.64 92.67-26.30L92.67-26.30L92.67-26.30Q91.58-27.97 88.83-28.03L88.83-28.03L88.77-28.03L88.77-28.03Q87.10-28.03 84.77-27.46L84.77-27.46L84.77-27.46Q82.43-26.88 80.26-25.73L80.26-25.73L80.26 0L76.22 0Z" fill="url(#editing-glowing-gradient)"></path></g></g><style>text {
  font-size: 64px;
  font-family: Arial Black;
  dominant-baseline: central;
  text-anchor: middle;
}</style></svg>