<svg width="578.75px" height="131.36000366210936px" xmlns="http://www.w3.org/2000/svg" viewBox="-39.375 9.319998168945318 578.75 131.36000366210936" style="" preserveAspectRatio="xMidYMid"><defs><linearGradient id="editing-glowing-gradient" x1="0.14644660940672632" x2="0.8535533905932737" y1="0.8535533905932738" y2="0.14644660940672616"><stop offset="0" stop-color="#32e4ff"></stop><stop offset="1" stop-color="#c2e1f2"></stop></linearGradient><filter id="editing-glowing" x="-100%" y="-100%" width="300%" height="300%"><feGaussianBlur in="SourceGraphic" result="blur" stdDeviation="1.5"></feGaussianBlur><feMerge><feMergeNode in="blur"></feMergeNode><feMergeNode in="SourceGraphic"></feMergeNode></feMerge></filter></defs><g filter="url(#editing-glowing)"><g transform="translate(43.18502426147461, 98.53000068664551)"><path d="M6 0L6-46.06L13.50-46.06L13.50 0L6 0ZM16.06-46.06L19.88-46.06L19.88-46.06Q25.69-46.06 30.09-44.22L30.09-44.22L30.09-44.22Q34.50-42.38 37.41-39.31L37.41-39.31L37.41-39.31Q40.31-36.25 41.75-32.34L41.75-32.34L41.75-32.34Q43.19-28.44 43.19-24.31L43.19-24.31L43.19-24.31Q43.19-18.63 41.97-14.59L41.97-14.59L41.97-14.59Q40.75-10.56 38.88-7.84L38.88-7.84L38.88-7.84Q37-5.13 34.66-3.56L34.66-3.56L34.66-3.56Q32.31-2 30.13-1.22L30.13-1.22L30.13-1.22Q27.94-0.44 26.13-0.22L26.13-0.22L26.13-0.22Q24.31 0 23.44 0L23.44 0L16.06 0L16.06-5.50L20.94-5.50L20.94-5.50Q28.56-5.50 31.94-10.38L31.94-10.38L31.94-10.38Q35.31-15.25 35.31-24.50L35.31-24.50L35.31-24.50Q35.31-27.38 34.63-30.19L34.63-30.19L34.63-30.19Q33.94-33 31.97-35.28L31.97-35.28L31.97-35.28Q30-37.56 26.63-38.97L26.63-38.97L26.63-38.97Q23.25-40.38 17.88-40.38L17.88-40.38L16.06-40.38L16.06-46.06ZM75.63-46L91.63 0L83.88 0L71.94-34.50L59.88 0L52.06 0L68.19-46L75.63-46ZM67.69-14.63L76.06-14.63L77.88-9.56L65.94-9.56L67.69-14.63ZM127-14.31L127-46.06L134.63-46.06L134.63 0L127 0L111.50-27.25L111.50-41.63L127-14.31ZM108.94 0L101.31 0L101.31-46.06L108.94-46.06L108.94 0ZM177.25-41.81L172.06-37.19L172.06-37.19Q170.63-38.81 169-39.63L169-39.63L169-39.63Q167.38-40.44 165.50-40.56L165.50-40.56L165.50-46.75L165.50-46.75Q172.50-46.44 177.25-41.81L177.25-41.81ZM165.50 0.31L165.50-5.88L165.50-5.88Q167.38-6.06 169.03-6.88L169.03-6.88L169.03-6.88Q170.69-7.69 172.06-9.25L172.06-9.25L177.25-4.69L177.25-4.69Q174.88-2.38 171.94-1.13L171.94-1.13L171.94-1.13Q169 0.13 165.50 0.31L165.50 0.31ZM145.25-23.25L145.25-23.25L145.25-23.25Q145.25-28.81 146.59-33.06L146.59-33.06L146.59-33.06Q147.94-37.31 150.31-40.25L150.31-40.25L150.31-40.25Q152.69-43.19 155.91-44.81L155.91-44.81L155.91-44.81Q159.13-46.44 162.94-46.75L162.94-46.75L162.94-40.50L162.94-40.50Q160.88-40.19 159.06-39.09L159.06-39.09L159.06-39.09Q157.25-38 155.88-35.94L155.88-35.94L155.88-35.94Q154.50-33.88 153.72-30.72L153.72-30.72L153.72-30.72Q152.94-27.56 152.88-23.25L152.88-23.25L152.88-23.25Q152.94-18.88 153.72-15.75L153.72-15.75L153.72-15.75Q154.50-12.63 155.88-10.50L155.88-10.50L155.88-10.50Q157.25-8.38 159.09-7.25L159.09-7.25L159.09-7.25Q160.94-6.13 162.94-5.88L162.94-5.88L162.94 0.25L162.94 0.25Q159.13 0 155.91-1.63L155.91-1.63L155.91-1.63Q152.69-3.25 150.31-6.19L150.31-6.19L150.31-6.19Q147.94-9.13 146.59-13.41L146.59-13.41L146.59-13.41Q145.25-17.69 145.25-23.25ZM188.19 0L188.19-46.06L195.81-46.06L195.81 0L188.19 0ZM215.06-25.88L215.06-20.75L198.38-20.75L198.38-25.88L215.06-25.88ZM198.38 0L198.38-5.69L217-5.69L217 0L198.38 0ZM198.38-46.06L217-46.06L217-40.38L198.38-40.38L198.38-46.06ZM266.38-24.25L266.38-24.25L266.38-24.25Q267.81-24.06 269.44-23.31L269.44-23.31L269.44-23.31Q271.06-22.56 272.47-21.19L272.47-21.19L272.47-21.19Q273.88-19.81 274.81-17.84L274.81-17.84L274.81-17.84Q275.75-15.88 275.75-13.31L275.75-13.31L275.75-13.31Q275.75-10.19 274.81-7.94L274.81-7.94L274.81-7.94Q273.88-5.69 272.47-4.22L272.47-4.22L272.47-4.22Q271.06-2.75 269.41-1.91L269.41-1.91L269.41-1.91Q267.75-1.06 266.22-0.63L266.22-0.63L266.22-0.63Q264.69-0.19 263.50-0.09L263.50-0.09L263.50-0.09Q262.31 0 261.94 0L261.94 0L254.69 0L254.69-5.50L261.50-5.50L261.50-5.50Q264.81-5.50 266.69-7.63L266.69-7.63L266.69-7.63Q268.56-9.75 268.56-13.31L268.56-13.31L268.56-13.31Q268.56-16.69 266.63-19L266.63-19L266.63-19Q264.69-21.31 260.94-21.31L260.94-21.31L254.69-21.31L254.69-26.38L257.69-26.38L257.69-26.38Q259.06-26.38 260.50-26.44L260.50-26.44L260.50-26.44Q261.94-26.50 263.19-27.13L263.19-27.13L263.19-27.13Q264.44-27.75 265.22-29.25L265.22-29.25L265.22-29.25Q266-30.75 266-33.56L266-33.56L266-33.56Q266-34.69 265.69-35.91L265.69-35.91L265.69-35.91Q265.38-37.13 264.44-38.13L264.44-38.13L264.44-38.13Q263.50-39.13 261.75-39.75L261.75-39.75L261.75-39.75Q260-40.38 257.13-40.38L257.13-40.38L254.69-40.38L254.69-46.06L257.88-46.06L257.88-46.06Q260.81-46.06 263.56-45.38L263.56-45.38L263.56-45.38Q266.31-44.69 268.44-43.19L268.44-43.19L268.44-43.19Q270.56-41.69 271.81-39.28L271.81-39.28L271.81-39.28Q273.06-36.88 273.06-33.56L273.06-33.56L273.06-33.56Q273.06-31.63 272.44-30.03L272.44-30.03L272.44-30.03Q271.81-28.44 270.88-27.25L270.88-27.25L270.88-27.25Q269.94-26.06 268.72-25.28L268.72-25.28L268.72-25.28Q267.50-24.50 266.38-24.25ZM244.63 0L244.63-46.06L252.13-46.06L252.13 0L244.63 0ZM308.06-46L324.06 0L316.31 0L304.38-34.50L292.31 0L284.50 0L300.63-46L308.06-46ZM300.13-14.63L308.50-14.63L310.31-9.56L298.38-9.56L300.13-14.63ZM355.75-24.25L355.75-24.25L355.75-24.25Q357.19-24.06 358.81-23.31L358.81-23.31L358.81-23.31Q360.44-22.56 361.84-21.19L361.84-21.19L361.84-21.19Q363.25-19.81 364.19-17.84L364.19-17.84L364.19-17.84Q365.13-15.88 365.13-13.31L365.13-13.31L365.13-13.31Q365.13-10.19 364.19-7.94L364.19-7.94L364.19-7.94Q363.25-5.69 361.84-4.22L361.84-4.22L361.84-4.22Q360.44-2.75 358.78-1.91L358.78-1.91L358.78-1.91Q357.13-1.06 355.59-0.63L355.59-0.63L355.59-0.63Q354.06-0.19 352.88-0.09L352.88-0.09L352.88-0.09Q351.69 0 351.31 0L351.31 0L344.06 0L344.06-5.50L350.88-5.50L350.88-5.50Q354.19-5.50 356.06-7.63L356.06-7.63L356.06-7.63Q357.94-9.75 357.94-13.31L357.94-13.31L357.94-13.31Q357.94-16.69 356-19L356-19L356-19Q354.06-21.31 350.31-21.31L350.31-21.31L344.06-21.31L344.06-26.38L347.06-26.38L347.06-26.38Q348.44-26.38 349.88-26.44L349.88-26.44L349.88-26.44Q351.31-26.50 352.56-27.13L352.56-27.13L352.56-27.13Q353.81-27.75 354.59-29.25L354.59-29.25L354.59-29.25Q355.38-30.75 355.38-33.56L355.38-33.56L355.38-33.56Q355.38-34.69 355.06-35.91L355.06-35.91L355.06-35.91Q354.75-37.13 353.81-38.13L353.81-38.13L353.81-38.13Q352.88-39.13 351.13-39.75L351.13-39.75L351.13-39.75Q349.38-40.38 346.50-40.38L346.50-40.38L344.06-40.38L344.06-46.06L347.25-46.06L347.25-46.06Q350.19-46.06 352.94-45.38L352.94-45.38L352.94-45.38Q355.69-44.69 357.81-43.19L357.81-43.19L357.81-43.19Q359.94-41.69 361.19-39.28L361.19-39.28L361.19-39.28Q362.44-36.88 362.44-33.56L362.44-33.56L362.44-33.56Q362.44-31.63 361.81-30.03L361.81-30.03L361.81-30.03Q361.19-28.44 360.25-27.25L360.25-27.25L360.25-27.25Q359.31-26.06 358.09-25.28L358.09-25.28L358.09-25.28Q356.88-24.50 355.75-24.25ZM334 0L334-46.06L341.50-46.06L341.50 0L334 0ZM386.31-15.38L399.06-46.06L407.63-46.06L393.94-18.75L393.94 0L386.31 0L386.31-15.38ZM373.31-46.06L381.88-46.06L388.81-28.13L385.44-19.94L373.31-46.06Z" fill="url(#editing-glowing-gradient)">
</path></g></g>
<style>text {
  font-size: 64px;
  font-family: Arial Black;
  dominant-baseline: central;
  text-anchor: middle;
}</style>
</svg>